<svg width="32" height="32" viewBox="0 0 32 32" fill="none" xmlns="http://www.w3.org/2000/svg">
  <!-- Background circle -->
  <circle cx="16" cy="16" r="15" fill="#42b8ff" stroke="#2196f3" stroke-width="1"/>
  
  <!-- Main raindrop -->
  <path d="M16 6C16 6 18 10 18 14C18 18 16 22 16 22C16 22 14 18 14 14C14 10 16 6 16 6Z" fill="#e3f6fd"/>
  <path d="M16 6C16 6 18 10 18 14C18 18 16 22 16 22C16 22 14 18 14 14C14 10 16 6 16 6Z" fill="url(#raindropGradient)"/>
  
  <!-- Secondary raindrops -->
  <path d="M12 8C12 8 13 10.5 13 12.5C13 14.5 12 16.5 12 16.5C12 16.5 11 14.5 11 12.5C11 10.5 12 8 12 8Z" fill="#e3f6fd" opacity="0.7"/>
  <path d="M20 10C20 10 21 12 21 13.5C21 15 20 16.5 20 16.5C20 16.5 19 15 19 13.5C19 12 20 10 20 10Z" fill="#e3f6fd" opacity="0.6"/>
  
  <!-- Water ripples -->
  <circle cx="16" cy="24" r="3" fill="none" stroke="#e3f6fd" stroke-width="1" opacity="0.8"/>
  <circle cx="16" cy="24" r="5" fill="none" stroke="#e3f6fd" stroke-width="0.5" opacity="0.6"/>
  <circle cx="16" cy="24" r="7" fill="none" stroke="#e3f6fd" stroke-width="0.5" opacity="0.4"/>
  
  <!-- Small water droplets -->
  <circle cx="10" cy="20" r="1" fill="#e3f6fd" opacity="0.8"/>
  <circle cx="22" cy="18" r="0.8" fill="#e3f6fd" opacity="0.7"/>
  <circle cx="8" cy="14" r="0.6" fill="#e3f6fd" opacity="0.6"/>
  <circle cx="24" cy="12" r="0.7" fill="#e3f6fd" opacity="0.5"/>
  
  <!-- Gradients -->
  <defs>
    <linearGradient id="raindropGradient" x1="16" y1="6" x2="16" y2="22" gradientUnits="userSpaceOnUse">
      <stop offset="0%" stop-color="#ffffff" stop-opacity="0.9"/>
      <stop offset="100%" stop-color="#e3f6fd" stop-opacity="0.7"/>
    </linearGradient>
  </defs>
</svg> 