<svg width="512" height="512" viewBox="0 0 512 512" fill="none" xmlns="http://www.w3.org/2000/svg">
  <!-- Background gradient -->
  <defs>
    <linearGradient id="bgGradient" x1="0%" y1="0%" x2="100%" y2="100%">
      <stop offset="0%" stop-color="#42b8ff"/>
      <stop offset="100%" stop-color="#1565c0"/>
    </linearGradient>
    
    <linearGradient id="raindropGradient" x1="50%" y1="0%" x2="50%" y2="100%">
      <stop offset="0%" stop-color="#ffffff" stop-opacity="0.9"/>
      <stop offset="100%" stop-color="#e3f6fd" stop-opacity="0.7"/>
    </linearGradient>
    
    <filter id="dropShadow" x="-20%" y="-20%" width="140%" height="140%">
      <feDropShadow dx="0" dy="6" stdDeviation="12" flood-color="#000000" flood-opacity="0.3"/>
    </filter>
    
    <filter id="innerGlow" x="-50%" y="-50%" width="200%" height="200%">
      <feGaussianBlur stdDeviation="4" result="coloredBlur"/>
      <feMerge> 
        <feMergeNode in="coloredBlur"/>
        <feMergeNode in="SourceGraphic"/>
      </feMerge>
    </filter>
  </defs>
  
  <!-- Main background circle -->
  <circle cx="256" cy="256" r="240" fill="url(#bgGradient)" stroke="#ffffff" stroke-width="12"/>
  
  <!-- Large central raindrop with enhanced shadow -->
  <path d="M256 100C256 100 290 180 290 260C290 340 256 400 256 400C256 400 222 340 222 260C222 180 256 100 256 100Z" fill="url(#raindropGradient)" filter="url(#dropShadow)"/>
  
  <!-- Secondary raindrops -->
  <path d="M160 150C160 150 180 200 180 240C180 280 160 320 160 320C160 320 140 280 140 240C140 200 160 150 160 150Z" fill="#e3f6fd" opacity="0.8"/>
  <path d="M352 170C352 170 370 210 370 245C370 280 352 310 352 310C352 310 334 280 334 245C334 210 352 170 352 170Z" fill="#e3f6fd" opacity="0.7"/>
  
  <!-- Water ripples at bottom -->
  <circle cx="256" cy="420" r="50" fill="none" stroke="#e3f6fd" stroke-width="4" opacity="0.8"/>
  <circle cx="256" cy="420" r="75" fill="none" stroke="#e3f6fd" stroke-width="3" opacity="0.6"/>
  <circle cx="256" cy="420" r="100" fill="none" stroke="#e3f6fd" stroke-width="2" opacity="0.4"/>
  
  <!-- Small water droplets scattered -->
  <circle cx="120" cy="380" r="10" fill="#e3f6fd" opacity="0.8"/>
  <circle cx="392" cy="360" r="8" fill="#e3f6fd" opacity="0.7"/>
  <circle cx="100" cy="300" r="6" fill="#e3f6fd" opacity="0.6"/>
  <circle cx="412" cy="280" r="8" fill="#e3f6fd" opacity="0.5"/>
  <circle cx="80" cy="240" r="5" fill="#e3f6fd" opacity="0.6"/>
  <circle cx="432" cy="200" r="6" fill="#e3f6fd" opacity="0.4"/>
  
  <!-- Subtle inner glow effect -->
  <circle cx="256" cy="256" r="200" fill="none" stroke="#ffffff" stroke-width="2" opacity="0.1" filter="url(#innerGlow)"/>
</svg> 